
<svg width="20px" height="18px" viewBox="0 0 20 18" version="1.1" xmlns="http://www.w3.org/2000/svg" xmlns:xlink="http://www.w3.org/1999/xlink">
    <g id="Symbols" stroke="none" stroke-width="1" fill="none" fill-rule="evenodd">
        <g id="Circle_Attention" transform="translate(-11.000000, -10.000000)" fill="#FFFFFF">
            <g id="Bell-2-Copy" transform="translate(11.000000, 9.000000)">
                <path d="M0.845249813,14.0748672 L0.847,15.118 C0.847,15.118 1.963,16.051 10.063,16.051 C18.0323548,16.051 19.2411831,15.1478541 19.2781044,15.1187203 L19.2791591,14.1575199 C19.669798,14.3144981 19.883,14.4840814 19.883,14.661 C19.883,14.6879221 19.878063,14.7146744 19.868315,14.7412382 L19.8690064,16.6883514 C19.8703334,16.6982107 19.871,16.7080939 19.871,16.718 C19.871,17.527 15.425,18.184 9.941,18.184 C4.457,18.184 0.01,17.528 0.01,16.718 C0.01,16.6777066 0.021001871,16.6377968 0.0425862232,16.5983321 L0.042779483,14.7692667 C0.025030391,14.7335192 0.016,14.697415 0.016,14.661 C0.016,14.452569 0.311916456,14.254319 0.845249813,14.0748672 Z M12,1.738 C10.8214578,2.91654218 10.6846369,3.74784394 10.7710623,4.23190529 C19.6445536,4.64251764 19.986309,12.14346 19.9994727,12.7206871 L19.9999805,12.751853 C20,12.7544891 20,12.7558238 20,12.7558238 C15.4522222,14.6994988 4.26188151,14.6994988 0,12.7558238 L0.00052734375,12.7206871 C0.0136879661,12.1435914 0.355290862,4.64593197 9.22208573,4.23143549 C9.30856819,3.74588354 9.17317609,2.91117609 8,1.738 C7.016,0.754 12.984,0.754 12,1.738 Z M12.917943,6.05912023 L12.8860132,6.07067681 C12.2637805,6.28045754 11.1768757,6.41890234 9.93969486,6.41890234 C8.7430773,6.41890234 7.68651072,6.2886207 7.05512889,6.09020264 C2.3275463,7.3462388 1.94873047,11.4728574 1.94873047,11.4728574 C5.78442383,13.0656309 14.0298027,13.0656309 18.1228075,11.4728574 C18.1228075,11.4728574 17.7530238,7.27774932 12.917943,6.05912023 Z"></path>
            </g>
        </g>
    </g>
</svg>
